<?xml version="1.0" encoding="UTF-8"?>
<svg id="Logo" xmlns="http://www.w3.org/2000/svg" viewBox="0 0 200 200">
  <defs>
    
  </defs>
  <g>
    <path class="#fff" d="M144.03,92.92l-34-34c-5.56-5.55-14.51-5.55-20.06,0l-34,34c-2.64,2.64-4.14,6.24-4.14,10v28.14c0,7.82,6.35,14.17,14.17,14.17h22.66v-20.29c0-5.92,4.34-11.22,10.23-11.76,6.75-.65,12.44,4.65,12.44,11.28v20.77h22.67c7.82,0,14.16-6.35,14.16-14.17v-28.14c0-3.76-1.5-7.36-4.13-10Zm.59,38.14c0,5.86-4.76,10.62-10.62,10.62h-19.13v-17.23c0-4.18-1.77-8.19-4.87-11.01-2.74-2.49-6.33-3.87-10.01-3.87-.48,0-.96,.02-1.44,.07-7.53,.72-13.43,7.44-13.43,15.3v16.74h-19.12c-5.86,0-10.63-4.76-10.63-10.62v-28.13c0-2.84,1.11-5.51,3.11-7.52l34-34c2.01-2,4.68-3.11,7.52-3.11s5.5,1.11,7.51,3.11l34,34c2.01,2.01,3.11,4.68,3.11,7.52v28.13Z" stroke="#000" stroke-width="10" />
    <path class="#fce6e6" d="M98.89,113.18c-5.89,.54-10.23,5.84-10.23,11.76v20.29h22.67v-20.77c0-6.63-5.69-11.93-12.44-11.28Zm-6.68,28.5v-16.74c0-2.12,.77-4.09,2.03-5.58,1.26-1.48,3.02-2.48,4.98-2.67,2.24-.21,4.38,.5,6.02,1.99,1.62,1.48,2.55,3.58,2.55,5.77v17.23h-15.58Z" stroke="#000" stroke-width="10"/>
  </g>
  <g>
    <path d="M146.52,90.41l-34-34c-6.9-6.91-18.14-6.91-25.04,0l-34,34c-3.35,3.34-5.19,7.79-5.19,12.52v28.13c0,9.76,7.94,17.71,17.71,17.71h68c9.76,0,17.71-7.95,17.71-17.71v-28.13c0-4.73-1.85-9.18-5.19-12.52Zm-1.9,40.65c0,5.86-4.76,10.62-10.62,10.62H66c-5.86,0-10.63-4.76-10.63-10.62v-28.13c0-2.84,1.11-5.51,3.11-7.52l34-34c2.01-2,4.68-3.11,7.52-3.11s5.5,1.11,7.51,3.11l34,34c2.01,2.01,3.11,4.68,3.11,7.52v28.13Z"/>
    <path d="M110,113.44c-2.74-2.49-6.33-3.87-10.01-3.87-.48,0-.96,.02-1.44,.07-7.53,.72-13.43,7.44-13.43,15.3v20.29c0,1.95,1.59,3.54,3.54,3.54h22.67c1.96,0,3.54-1.59,3.54-3.54v-20.78c0-4.18-1.77-8.19-4.87-11.01Zm-2.21,28.24h-15.58v-16.74c0-2.12,.77-4.09,2.03-5.58,1.26-1.48,3.02-2.48,4.98-2.67,2.24-.21,4.38,.5,6.02,1.99,1.62,1.48,2.55,3.58,2.55,5.77v17.23Z"/>
  </g>
</svg>