<svg width="50" height="50" xmlns="http://www.w3.org/2000/svg" version="1.1">
 <g>
  <title>Layer 1</title>
  <g id="svg_2">
   <path id="path235" d="m47.8125,26.51695l0,13.24c0,3.68 -2.98667,6.66667 -6.66667,6.66667l-10.66667,0l0,-9.77333c0,-3.12 -2.68,-5.61333 -5.85333,-5.30667c-2.77333,0.25333 -4.81333,2.74667 -4.81333,5.53333l0,9.54667l-10.66667,0c-3.68,0 -6.66667,-2.98667 -6.66667,-6.66667l0,-13.24c0,-1.77333 0.70667,-3.46667 1.94667,-4.70667l16,-16c2.61333,-2.61333 6.82667,-2.61333 9.44,0l16,16c1.24,1.24 1.94667,2.93333 1.94667,4.70667" fill="#ffffff" fill-rule="nonzero"/>
   <path id="path236" d="m30.47917,36.65028l0,9.77333l-10.66667,0l0,-9.54667c0,-2.78667 2.04,-5.28 4.81333,-5.53333c3.17333,-0.30667 5.85333,2.18667 5.85333,5.30667" fill="#e6f0fc" fill-rule="nonzero"/>
   <path id="path237" d="m25.14584,5.51828c-1.336,0 -2.59067,0.52 -3.536,1.464l-16,16c-0.944,0.94533 -1.464,2.2 -1.464,3.536l0,13.23867c0,2.75733 2.24267,5 5,5l32,0c2.75733,0 5,-2.24267 5,-5l0,-13.23867c0,-1.336 -0.52,-2.59067 -1.464,-3.536l-16,-16c-0.94533,-0.944 -2.2,-1.464 -3.536,-1.464zm16,42.572l-32,0c-4.59467,0 -8.33333,-3.73867 -8.33333,-8.33333l0,-13.23867c0,-2.22533 0.86667,-4.31867 2.44133,-5.892l16,-16c3.248,-3.25067 8.536,-3.25067 11.784,0l16,16c1.57467,1.57333 2.44133,3.66667 2.44133,5.892l0,13.23867c0,4.59467 -3.73867,8.33333 -8.33333,8.33333" fill="#557fb9" fill-rule="nonzero"/>
   <path id="path238" d="m21.47917,44.75695l7.33333,0l0,-8.11067c0,-1.03067 -0.43733,-2.02 -1.20133,-2.71333c-0.772,-0.704 -1.77867,-1.036 -2.83067,-0.936l0,0c-1.852,0.17733 -3.30133,1.88 -3.30133,3.87867l0,7.88133zm9,3.33333l-10.66667,0c-0.92,0 -1.66667,-0.74667 -1.66667,-1.66667l0,-9.548c0,-3.69733 2.77467,-6.85867 6.31733,-7.19733l0,0c1.96933,-0.192 3.93467,0.464 5.39067,1.788c1.45733,1.324 2.292,3.212 2.292,5.18l0,9.77733c0,0.92 -0.74667,1.66667 -1.66667,1.66667" fill="#557fb9" fill-rule="nonzero"/>
  </g>
 </g>

</svg>